<?xml version="1.0" standalone="no" ?>
<!DOCTYPE svg PUBLIC "-//W3C//DTD SVG 20010904//EN"
  "http://www.w3.org/TR/2001/REC-SVG-20010904/DTD/svg10.dtd">
<svg
  version="1.0"
  xmlns="http://www.w3.org/2000/svg"
  width="733.000000pt"
  height="732.000000pt"
  viewBox="0 0 733.000000 732.000000"
  preserveAspectRatio="xMidYMid meet"
>

<g
    transform="translate(0.000000,732.000000) scale(0.100000,-0.100000)"
    fill="#8eaebd"
    stroke="none"
  >
<path
      d="M1082 6002 c-50 -110 -86 -223 -118 -372 -21 -94 -26 -153 -31 -325
-3 -125 -1 -251 5 -310 11 -93 54 -333 67 -366 3 -8 -20 -50 -53 -94 -229
-315 -372 -666 -427 -1049 -47 -322 -17 -811 71 -1141 239 -907 856 -1411
1874 -1532 141 -16 249 -18 1180 -18 930 0 1038 2 1170 18 838 105 1424 488
1729 1129 167 351 245 733 246 1193 0 223 -9 323 -46 503 -62 305 -205 628
-390 882 l-52 72 12 51 c55 232 71 367 72 582 0 315 -44 534 -159 788 l-35 77
-68 0 c-37 0 -120 -9 -185 -20 -341 -59 -699 -242 -1058 -544 l-46 -38 -117
18 c-109 18 -191 19 -1083 19 -862 0 -976 -2 -1064 -17 l-100 -17 -35 30 c-20
16 -76 62 -126 101 -359 284 -802 468 -1128 468 l-64 0 -41 -88z m4201 -2436
c102 -30 170 -63 242 -116 224 -165 358 -440 430 -880 29 -178 32 -308 10
-436 -81 -463 -426 -805 -914 -903 -242 -49 -1312 -76 -2041 -51 -732 25 -847
42 -1075 156 -117 60 -193 115 -283 205 -157 159 -259 369 -293 600 -19 130
-7 336 30 519 89 436 247 696 503 824 108 54 175 72 313 88 86 9 130 8 310
-11 116 -12 254 -28 308 -36 54 -8 184 -24 290 -34 444 -46 577 -41 1352 54
198 25 378 46 400 49 22 2 105 3 185 1 121 -3 160 -8 233 -29z"
    />
<path
      d="M2323 3172 c-221 -79 -374 -373 -374 -722 0 -291 100 -535 272 -664
73 -55 164 -82 245 -72 199 23 372 239 429 536 19 98 19 304 0 404 -44 231
-171 428 -322 502 -73 36 -176 42 -250 16z"
    />
<path
      d="M4755 3181 c-149 -39 -288 -197 -353 -401 -41 -131 -47 -173 -47
-335 1 -168 13 -240 64 -376 64 -168 194 -306 326 -344 209 -61 425 103 519
394 39 121 49 187 49 331 0 188 -33 330 -110 475 -48 91 -152 197 -228 231
-62 29 -163 40 -220 25z"
    />
</g>
</svg>
